<svg width="36" height="41" viewBox="0 0 36 41" fill="none" xmlns="http://www.w3.org/2000/svg">
<path d="M19.7108 31.8593C18.8439 32.7263 17.4382 32.7263 16.5713 31.8593L12.063 27.3511C7.76395 23.052 0.5 26.091 0.5 32.1691V37.8801C0.5 39.1062 1.49393 40.1001 2.72 40.1001H33.5621C34.7881 40.1001 35.7821 39.1062 35.7821 37.8801V21.1476C35.7821 19.1698 33.3908 18.1793 31.9923 19.5779L19.7108 31.8593Z" fill="#C2E96A"/>
<path d="M16.5713 8.24076C17.4382 7.37379 18.8439 7.37379 19.7108 8.24076L24.219 12.749C28.5181 17.0481 35.7821 14.0091 35.7821 7.93105V2.22C35.7821 0.993926 34.7881 0 33.5621 0H2.72C1.49393 0 0.5 0.993928 0.5 2.22V18.9525C0.5 20.9303 2.89125 21.9208 4.28978 20.5222L16.5713 8.24076Z" fill="#2A6041"/>
</svg>
