<svg width="184" height="41" viewBox="0 0 184 41" fill="none" xmlns="http://www.w3.org/2000/svg">
<path d="M58.0781 30H53.0781L53.1094 26.0625H58.0781C59.2135 26.0625 60.1719 25.8021 60.9531 25.2812C61.7344 24.75 62.3281 23.9688 62.7344 22.9375C63.1406 21.8958 63.3438 20.6302 63.3438 19.1406V18.0938C63.3438 16.9688 63.2292 15.9792 63 15.125C62.7708 14.2604 62.4323 13.5365 61.9844 12.9531C61.5365 12.3698 60.9792 11.9323 60.3125 11.6406C59.6562 11.349 58.901 11.2031 58.0469 11.2031H52.9844V7.25H58.0469C59.5885 7.25 60.9948 7.51042 62.2656 8.03125C63.5469 8.55208 64.651 9.29688 65.5781 10.2656C66.5156 11.2344 67.2396 12.3802 67.75 13.7031C68.2604 15.026 68.5156 16.5 68.5156 18.125V19.1406C68.5156 20.7552 68.2604 22.2292 67.75 23.5625C67.2396 24.8854 66.5156 26.0312 65.5781 27C64.651 27.9583 63.5521 28.6979 62.2812 29.2188C61.0104 29.7396 59.6094 30 58.0781 30ZM55.9688 7.25V30H50.875V7.25H55.9688ZM76.5156 13.0938V30H71.625V13.0938H76.5156ZM71.3281 8.71875C71.3281 8.01042 71.5781 7.43229 72.0781 6.98438C72.5781 6.52604 73.2344 6.29688 74.0469 6.29688C74.8594 6.29688 75.5156 6.52604 76.0156 6.98438C76.526 7.43229 76.7812 8.01042 76.7812 8.71875C76.7812 9.41667 76.526 9.99479 76.0156 10.4531C75.5156 10.901 74.8594 11.125 74.0469 11.125C73.2344 11.125 72.5781 10.901 72.0781 10.4531C71.5781 9.99479 71.3281 9.41667 71.3281 8.71875ZM89.0312 25.2969C89.0312 24.9844 88.9323 24.7083 88.7344 24.4688C88.5469 24.2292 88.2031 24.0104 87.7031 23.8125C87.2135 23.6146 86.5208 23.4167 85.625 23.2188C84.7812 23.0417 83.9948 22.8125 83.2656 22.5312C82.5365 22.2396 81.901 21.8906 81.3594 21.4844C80.8177 21.0677 80.3958 20.5781 80.0938 20.0156C79.7917 19.4427 79.6406 18.7917 79.6406 18.0625C79.6406 17.3542 79.7917 16.6823 80.0938 16.0469C80.4062 15.4115 80.8542 14.849 81.4375 14.3594C82.0312 13.8698 82.75 13.4844 83.5938 13.2031C84.4479 12.9219 85.4167 12.7812 86.5 12.7812C87.9896 12.7812 89.276 13.0156 90.3594 13.4844C91.4427 13.9427 92.276 14.5885 92.8594 15.4219C93.4427 16.2448 93.7344 17.1875 93.7344 18.25H88.8594C88.8594 17.8125 88.776 17.4323 88.6094 17.1094C88.4427 16.7865 88.1875 16.5365 87.8438 16.3594C87.5 16.1719 87.0469 16.0781 86.4844 16.0781C86.0469 16.0781 85.6615 16.1562 85.3281 16.3125C85.0052 16.4583 84.75 16.6615 84.5625 16.9219C84.3854 17.1823 84.2969 17.4844 84.2969 17.8281C84.2969 18.0677 84.349 18.2865 84.4531 18.4844C84.5677 18.6719 84.7396 18.849 84.9688 19.0156C85.2083 19.1719 85.5156 19.3125 85.8906 19.4375C86.276 19.5625 86.7448 19.6823 87.2969 19.7969C88.474 20.0156 89.5469 20.3229 90.5156 20.7188C91.4948 21.1146 92.276 21.6615 92.8594 22.3594C93.4531 23.0573 93.75 23.9792 93.75 25.125C93.75 25.875 93.5781 26.5625 93.2344 27.1875C92.901 27.8125 92.4167 28.3594 91.7812 28.8281C91.1458 29.2969 90.3854 29.6615 89.5 29.9219C88.6146 30.1823 87.6146 30.3125 86.5 30.3125C84.9062 30.3125 83.5573 30.026 82.4531 29.4531C81.349 28.8802 80.5156 28.1615 79.9531 27.2969C79.401 26.4219 79.125 25.526 79.125 24.6094H83.7031C83.724 25.1719 83.8646 25.6302 84.125 25.9844C84.3958 26.3385 84.7448 26.599 85.1719 26.7656C85.599 26.9219 86.0781 27 86.6094 27C87.1406 27 87.5833 26.9271 87.9375 26.7812C88.2917 26.6354 88.5625 26.4375 88.75 26.1875C88.9375 25.9271 89.0312 25.6302 89.0312 25.2969Z" fill="#2A6041"/>
<path d="M101.211 7.25H108.742C110.451 7.25 111.893 7.51042 113.07 8.03125C114.258 8.55208 115.159 9.32292 115.773 10.3438C116.398 11.3542 116.711 12.599 116.711 14.0781C116.711 15.1198 116.497 16.0729 116.07 16.9375C115.654 17.7917 115.049 18.5208 114.258 19.125C113.477 19.7188 112.539 20.1615 111.445 20.4531L110.602 20.7812H103.523L103.492 18.3281H108.836C109.919 18.3281 110.82 18.1406 111.539 17.7656C112.258 17.3802 112.799 16.8646 113.164 16.2188C113.529 15.5729 113.711 14.8594 113.711 14.0781C113.711 13.2031 113.539 12.4375 113.195 11.7812C112.852 11.125 112.31 10.6198 111.57 10.2656C110.841 9.90104 109.898 9.71875 108.742 9.71875H104.227V30H101.211V7.25ZM114.508 30L108.977 19.6875L112.117 19.6719L117.727 29.8125V30H114.508ZM123.633 13.0938V30H120.727V13.0938H123.633ZM120.508 8.60938C120.508 8.14062 120.648 7.74479 120.93 7.42188C121.221 7.09896 121.648 6.9375 122.211 6.9375C122.763 6.9375 123.185 7.09896 123.477 7.42188C123.779 7.74479 123.93 8.14062 123.93 8.60938C123.93 9.05729 123.779 9.44271 123.477 9.76562C123.185 10.0781 122.763 10.2344 122.211 10.2344C121.648 10.2344 121.221 10.0781 120.93 9.76562C120.648 9.44271 120.508 9.05729 120.508 8.60938ZM135.289 30.3125C134.112 30.3125 133.044 30.1146 132.086 29.7188C131.138 29.3125 130.32 28.7448 129.633 28.0156C128.956 27.2865 128.435 26.4219 128.07 25.4219C127.706 24.4219 127.523 23.3281 127.523 22.1406V21.4844C127.523 20.1094 127.727 18.8854 128.133 17.8125C128.539 16.7292 129.091 15.8125 129.789 15.0625C130.487 14.3125 131.279 13.7448 132.164 13.3594C133.049 12.974 133.966 12.7812 134.914 12.7812C136.122 12.7812 137.164 12.9896 138.039 13.4062C138.924 13.8229 139.648 14.4062 140.211 15.1562C140.773 15.8958 141.19 16.7708 141.461 17.7812C141.732 18.7812 141.867 19.875 141.867 21.0625V22.3594H129.242V20H138.977V19.7812C138.935 19.0312 138.779 18.3021 138.508 17.5938C138.247 16.8854 137.831 16.3021 137.258 15.8438C136.685 15.3854 135.904 15.1562 134.914 15.1562C134.258 15.1562 133.654 15.2969 133.102 15.5781C132.549 15.849 132.076 16.2552 131.68 16.7969C131.284 17.3385 130.977 18 130.758 18.7812C130.539 19.5625 130.43 20.4635 130.43 21.4844V22.1406C130.43 22.9427 130.539 23.6979 130.758 24.4062C130.987 25.1042 131.315 25.7188 131.742 26.25C132.18 26.7812 132.706 27.1979 133.32 27.5C133.945 27.8021 134.654 27.9531 135.445 27.9531C136.466 27.9531 137.331 27.7448 138.039 27.3281C138.747 26.9115 139.367 26.3542 139.898 25.6562L141.648 27.0469C141.284 27.599 140.82 28.125 140.258 28.625C139.695 29.125 139.003 29.5312 138.18 29.8438C137.367 30.1562 136.404 30.3125 135.289 30.3125ZM156.195 13.0938H158.82V29.6406C158.82 31.1302 158.518 32.401 157.914 33.4531C157.31 34.5052 156.466 35.3021 155.383 35.8438C154.31 36.3958 153.07 36.6719 151.664 36.6719C151.081 36.6719 150.393 36.5781 149.602 36.3906C148.82 36.2135 148.049 35.9062 147.289 35.4688C146.539 35.0417 145.909 34.4635 145.398 33.7344L146.914 32.0156C147.622 32.8698 148.362 33.4635 149.133 33.7969C149.914 34.1302 150.685 34.2969 151.445 34.2969C152.362 34.2969 153.154 34.125 153.82 33.7812C154.487 33.4375 155.003 32.9271 155.367 32.25C155.742 31.5833 155.93 30.7604 155.93 29.7812V16.8125L156.195 13.0938ZM144.555 21.7344V21.4062C144.555 20.1146 144.706 18.9427 145.008 17.8906C145.32 16.8281 145.763 15.9167 146.336 15.1562C146.919 14.3958 147.622 13.8125 148.445 13.4062C149.268 12.9896 150.195 12.7812 151.227 12.7812C152.289 12.7812 153.216 12.9688 154.008 13.3438C154.81 13.7083 155.487 14.2448 156.039 14.9531C156.602 15.651 157.044 16.4948 157.367 17.4844C157.69 18.474 157.914 19.5938 158.039 20.8438V22.2812C157.924 23.5208 157.701 24.6354 157.367 25.625C157.044 26.6146 156.602 27.4583 156.039 28.1562C155.487 28.8542 154.81 29.3906 154.008 29.7656C153.206 30.1302 152.268 30.3125 151.195 30.3125C150.185 30.3125 149.268 30.099 148.445 29.6719C147.633 29.2448 146.935 28.6458 146.352 27.875C145.768 27.1042 145.32 26.1979 145.008 25.1562C144.706 24.1042 144.555 22.9635 144.555 21.7344ZM147.445 21.4062V21.7344C147.445 22.5781 147.529 23.3698 147.695 24.1094C147.872 24.849 148.138 25.5 148.492 26.0625C148.857 26.625 149.32 27.0677 149.883 27.3906C150.445 27.7031 151.117 27.8594 151.898 27.8594C152.857 27.8594 153.648 27.6562 154.273 27.25C154.898 26.8438 155.393 26.3073 155.758 25.6406C156.133 24.974 156.424 24.25 156.633 23.4688V19.7031C156.518 19.1302 156.341 18.5781 156.102 18.0469C155.872 17.5052 155.57 17.026 155.195 16.6094C154.831 16.1823 154.378 15.8438 153.836 15.5938C153.294 15.3438 152.659 15.2188 151.93 15.2188C151.138 15.2188 150.456 15.3854 149.883 15.7188C149.32 16.0417 148.857 16.4896 148.492 17.0625C148.138 17.625 147.872 18.2812 147.695 19.0312C147.529 19.7708 147.445 20.5625 147.445 21.4062ZM162.445 21.7344V21.375C162.445 20.1562 162.622 19.026 162.977 17.9844C163.331 16.9323 163.841 16.0208 164.508 15.25C165.174 14.4688 165.982 13.8646 166.93 13.4375C167.878 13 168.94 12.7812 170.117 12.7812C171.305 12.7812 172.372 13 173.32 13.4375C174.279 13.8646 175.091 14.4688 175.758 15.25C176.435 16.0208 176.951 16.9323 177.305 17.9844C177.659 19.026 177.836 20.1562 177.836 21.375V21.7344C177.836 22.9531 177.659 24.0833 177.305 25.125C176.951 26.1667 176.435 27.0781 175.758 27.8594C175.091 28.6302 174.284 29.2344 173.336 29.6719C172.398 30.099 171.336 30.3125 170.148 30.3125C168.961 30.3125 167.893 30.099 166.945 29.6719C165.997 29.2344 165.185 28.6302 164.508 27.8594C163.841 27.0781 163.331 26.1667 162.977 25.125C162.622 24.0833 162.445 22.9531 162.445 21.7344ZM165.336 21.375V21.7344C165.336 22.5781 165.435 23.375 165.633 24.125C165.831 24.8646 166.128 25.5208 166.523 26.0938C166.93 26.6667 167.435 27.1198 168.039 27.4531C168.643 27.776 169.346 27.9375 170.148 27.9375C170.94 27.9375 171.633 27.776 172.227 27.4531C172.831 27.1198 173.331 26.6667 173.727 26.0938C174.122 25.5208 174.419 24.8646 174.617 24.125C174.826 23.375 174.93 22.5781 174.93 21.7344V21.375C174.93 20.5417 174.826 19.7552 174.617 19.0156C174.419 18.2656 174.117 17.6042 173.711 17.0312C173.315 16.4479 172.815 15.9896 172.211 15.6562C171.617 15.3229 170.919 15.1562 170.117 15.1562C169.326 15.1562 168.628 15.3229 168.023 15.6562C167.43 15.9896 166.93 16.4479 166.523 17.0312C166.128 17.6042 165.831 18.2656 165.633 19.0156C165.435 19.7552 165.336 20.5417 165.336 21.375Z" fill="#2A6041"/>
<path d="M17.641 33.4291L11.563 27.3511C7.26395 23.052 0 26.091 0 32.1691V40.1001H35.2821V15.7881L17.641 33.4291Z" fill="#C2E96A"/>
<path d="M17.641 6.67098L23.719 12.749C28.0181 17.0481 35.2821 14.0091 35.2821 7.93105V0H0V24.312L17.641 6.67098Z" fill="#2A6041"/>
</svg>
