<svg width="495" height="408" viewBox="0 0 495 408" fill="none" xmlns="http://www.w3.org/2000/svg">
<path d="M494.593 371.699H454.104V372.004H494.593V371.699Z" fill="#EBEBEB"/>
<path d="M349.505 375.024H301.559V375.33H349.505V375.024Z" fill="#EBEBEB"/>
<path d="M452.879 360.354H383.172V360.66H452.879V360.354Z" fill="#EBEBEB"/>
<path d="M241.791 362.407H157.891V362.713H241.791V362.407Z" fill="#EBEBEB"/>
<path d="M260.408 362.407H252.67V362.713H260.408V362.407Z" fill="#EBEBEB"/>
<path d="M219.821 367.566H64.7949V367.872H219.821V367.566Z" fill="#EBEBEB"/>
<path d="M471.157 117.881C470.741 113.774 463.015 110.974 449.983 110.974C433.039 110.974 412.868 115.693 402.183 121.891C399.542 121.313 396.842 121.046 394.139 121.096C382.586 121.096 368.589 124.691 362.879 129.104C362.4 129.471 361.954 129.88 361.547 130.326H475.24C476.97 129.545 478.609 128.577 480.13 127.441C486.365 122.612 482.294 118.615 471.157 117.881Z" fill="#EBEBEB"/>
<path d="M117.754 132.234C117.436 129.19 111.727 127.124 102.069 127.124C89.5138 127.124 74.5625 130.608 66.6162 135.204C64.6574 134.776 62.6551 134.579 60.6504 134.618C52.0928 134.618 41.7382 137.27 37.4961 140.547C37.1421 140.817 36.811 141.115 36.5059 141.439H120.737C122.03 140.86 123.259 140.147 124.404 139.312C129.013 135.73 126.006 132.772 117.754 132.234Z" fill="#F5F5F5"/>
<path d="M313.784 74.5797C321.112 71.9821 328.821 70.6189 336.596 70.5454C346.486 70.5454 351.144 73.2961 348.014 76.9147C349.969 76.621 351.942 76.4698 353.919 76.4624C360.667 76.4624 363.417 78.5528 360.031 81.1323C359.713 81.3646 359.359 81.6091 358.968 81.8414H292.646C293.036 81.1624 293.575 80.5812 294.224 80.1421C297.805 77.3426 306.229 75.0076 313.784 74.5797Z" fill="#F5F5F5"/>
<path d="M171.387 78.7611C176.061 77.1061 180.977 76.2385 185.935 76.1938C192.231 76.1938 195.202 77.9542 193.27 80.2526C194.517 80.0656 195.775 79.9676 197.035 79.9592C201.326 79.9592 203.148 81.2917 200.96 82.9421C200.743 83.1041 200.519 83.2551 200.287 83.3944H157.891C158.123 82.9684 158.449 82.6006 158.844 82.3186C161.179 80.5215 166.546 79.0423 171.387 78.7611Z" fill="#F5F5F5"/>
<path d="M175.017 14.6281C174.186 14.6281 173.342 14.6281 172.474 14.6281C172.914 11.2051 167.046 8.80893 156.581 8.80893C153.698 8.81683 150.817 8.98007 147.951 9.29794C147.951 4.93358 140.078 1.96289 126.496 1.96289C109.918 1.96289 90.2848 6.42504 79.2211 12.3909C68.6464 13.1611 57.216 16.4129 52.1793 20.3127C51.6873 20.6739 51.2327 21.0835 50.8223 21.5352H184.076C189.088 17.721 184.993 14.6281 175.017 14.6281Z" fill="#EBEBEB"/>
<path d="M346.229 278.544C341.339 234.533 281.509 326.221 284.957 290.145C287.047 268.14 298.991 237.969 263.563 245.952C228.135 253.935 239.345 294.974 221.851 303.862C204.357 312.749 209.32 273.299 185.689 275.634C179.002 276.294 174.027 281.368 170.322 288.617C169.919 276.135 167.022 265.047 159.491 259.057C130.407 235.939 151.19 305.219 104.735 282.578C87.8763 274.35 128.109 225.01 95.0769 214.692C62.0447 204.374 64.991 243.372 60.5166 271.893C53.1816 318.63 20.675 199.949 2.69195 256.942C-9.03191 294.082 21.3352 352.151 21.3352 352.151L159.479 351.845V352.004L305.63 352.151C305.63 352.151 349.395 307.26 346.229 278.544Z" fill="#F5F5F5"/>
<path d="M300.85 173.542L310.214 156.757L319.64 175.412L317.855 352.028H302.573L300.85 173.542Z" fill="#F0F0F0"/>
<path d="M286.276 179.569L276.912 156.757L267.486 175.412L269.271 352.028H284.54L286.276 179.569Z" fill="#F0F0F0"/>
<path d="M248.612 173.542L239.248 156.757L229.822 175.412L231.607 352.028H246.888L248.612 173.542Z" fill="#F0F0F0"/>
<path d="M188.158 179.569L197.523 156.757L206.948 175.412L205.163 352.028H189.882L188.158 179.569Z" fill="#F0F0F0"/>
<path d="M440.705 173.542L450.082 156.757L459.507 175.412L457.722 352.028H442.441L440.705 173.542Z" fill="#F0F0F0"/>
<path d="M426.145 179.569L416.769 156.757L407.355 175.412L409.14 352.028H424.409L426.145 179.569Z" fill="#F0F0F0"/>
<path d="M388.479 173.542L379.115 156.757L369.689 175.412L371.474 352.028H386.756L388.479 173.542Z" fill="#F0F0F0"/>
<path d="M334.676 179.569L344.052 156.757L353.466 175.412L351.681 352.028H336.412L334.676 179.569Z" fill="#F0F0F0"/>
<path d="M188.623 226.954L206.435 226.966L206.618 208.934L188.439 208.799L188.623 226.954Z" fill="#E0E0E0"/>
<path d="M230.347 226.978L248.098 226.99L248.269 209.252L230.164 209.117L230.347 226.978Z" fill="#E0E0E0"/>
<path d="M268.013 226.99L285.8 227.002L285.972 209.545L267.842 209.41L268.013 226.99Z" fill="#E0E0E0"/>
<path d="M301.363 227.003L319.113 227.015L319.285 209.802L301.191 209.655L301.363 227.003Z" fill="#E0E0E0"/>
<path d="M335.154 227.027H352.953L353.124 210.058L334.982 209.924L335.154 227.027Z" fill="#E0E0E0"/>
<path d="M370.202 227.039L387.965 227.051L388.124 210.327L370.043 210.193L370.202 227.039Z" fill="#E0E0E0"/>
<path d="M407.868 227.051L425.668 227.064L425.827 210.621L407.709 210.474L407.868 227.051Z" fill="#E0E0E0"/>
<path d="M441.059 210.743L441.23 227.075H458.981L459.14 210.877L441.059 210.743Z" fill="#E0E0E0"/>
<path d="M179.981 216.929L476.353 222.186L476.097 206.097L176.863 198.628L179.981 216.929Z" fill="#F0F0F0"/>
<path d="M250.214 407.236C381.123 407.236 487.246 401.04 487.246 393.397C487.246 385.754 381.123 379.559 250.214 379.559C119.305 379.559 13.1816 385.754 13.1816 393.397C13.1816 401.04 119.305 407.236 250.214 407.236Z" fill="#F5F5F5"/>
<path d="M411.852 388.214H419.187C419.187 388.214 418.441 356.429 433.588 326.612C448.735 296.795 444.823 277.895 435.825 285.414C426.827 292.932 413.808 335.94 411.852 388.214Z" fill="#BBDA77"/>
<path d="M411.35 384.804L405.629 387.921C393.55 394.486 379.357 395.024 364.895 388.972C356.227 385.305 348.672 379.755 347.939 371.222C346.154 350.439 371.289 377.97 372.034 365.855C372.78 353.74 342.975 356.625 342.829 343.287C342.682 329.95 375.714 356.111 374.614 337.04C373.514 317.969 343.782 336.515 343.256 322.187C342.731 307.859 372.841 323.996 373.819 311.539C374.797 299.081 342.975 309.827 345.335 295.426C347.694 281.025 377.609 310.671 381.729 298.886C385.849 287.101 345.506 290.426 354.467 276.82C363.428 263.213 383.624 286.404 388.697 281.037C393.771 275.67 368.978 270.316 372.205 262.626C375.433 254.937 386.876 253.567 399.541 264.973C414.101 278.152 424.627 295.536 422.573 306.209C420.519 316.881 407.756 292.26 404.064 298.739C396.24 312.48 423.563 316.404 424.7 329.204C425.837 342.004 402.389 316.001 398.013 323.739C389.846 338.214 431.509 340.158 427.658 349.51C423.221 360.268 394.284 339.192 392.964 352.725C391.008 372.945 418.636 349.754 422.94 363.422C427.243 377.09 411.35 384.804 411.35 384.804Z" fill="#C3E37C"/>
<path opacity="0.8" d="M411.35 384.804L405.629 387.921C393.55 394.486 379.357 395.024 364.895 388.972C356.227 385.305 348.672 379.755 347.939 371.222C346.154 350.439 371.289 377.97 372.034 365.855C372.78 353.74 342.975 356.625 342.829 343.287C342.682 329.95 375.714 356.111 374.614 337.04C373.514 317.969 343.782 336.515 343.256 322.187C342.731 307.859 372.841 323.996 373.819 311.539C374.797 299.081 342.975 309.827 345.335 295.426C347.694 281.025 377.609 310.671 381.729 298.886C385.849 287.101 345.506 290.426 354.467 276.82C363.428 263.213 383.624 286.404 388.697 281.037C393.771 275.67 368.978 270.316 372.205 262.626C375.433 254.937 386.876 253.567 399.541 264.973C414.101 278.152 424.627 295.536 422.573 306.209C420.519 316.881 407.756 292.26 404.064 298.739C396.24 312.48 423.563 316.404 424.7 329.204C425.837 342.004 402.389 316.001 398.013 323.739C389.846 338.214 431.509 340.158 427.658 349.51C423.221 360.268 394.284 339.192 392.964 352.725C391.008 372.945 418.636 349.754 422.94 363.422C427.243 377.09 411.35 384.804 411.35 384.804Z" fill="white"/>
<path d="M361.78 390.916H347.11C343.118 368.546 335.01 347.111 323.197 327.7C303.637 295.658 316.914 284.619 332.024 293.592C347.134 302.565 357.855 338.666 361.78 390.916Z" fill="#C3E37C"/>
<path opacity="0.2" d="M361.78 390.916H347.11C343.118 368.546 335.01 347.111 323.197 327.7C303.637 295.658 316.914 284.619 332.024 293.592C347.134 302.565 357.855 338.666 361.78 390.916Z" fill="#D8F1A0"/>
<path d="M379.726 393.202H361.388C361.206 365.953 355.552 339.018 344.762 313.996C326.999 273.849 345.984 260.034 363.002 271.208C380.019 282.382 385.838 327.749 379.726 393.202Z" fill="#D0EF89"/>
<path d="M415.25 394.326H422.585C422.585 394.326 423.319 372.59 438.563 357.737C452.5 344.167 442.414 339.399 433.233 345.512C424.052 351.624 415.446 375.989 415.25 394.326Z" fill="#C3E37C"/>
<path d="M336.069 393.202H322.12C322.12 393.202 326.643 376.454 320.164 354.082C333.135 365.256 336.191 382.909 336.069 393.202Z" fill="#C3E37C"/>
<path d="M326.459 393.202H316.52C316.52 393.202 317.743 381.271 310.518 365.329C321.117 373.288 325.334 385.867 326.459 393.202Z" fill="#C3E37C"/>
<path d="M435.166 393.202H441.132C441.132 393.202 440.374 386.038 444.738 376.466C438.406 381.246 435.851 388.801 435.166 393.202Z" fill="#C3E37C"/>
<path d="M274.834 388.019H279.797C279.797 388.019 279.174 382.053 282.805 374.082C278.506 377.574 275.664 382.543 274.834 388.019Z" fill="#C3E37C"/>
<path opacity="0.6" d="M274.834 388.019H279.797C279.797 388.019 279.174 382.053 282.805 374.082C278.506 377.574 275.664 382.543 274.834 388.019Z" fill="white"/>
<path d="M64.8801 388.018H54.9044C54.9044 388.018 56.1269 376.038 48.8652 359.999C59.5011 368.006 63.7554 380.647 64.8801 388.018Z" fill="#C3E37C"/>
<path opacity="0.2" d="M64.8801 388.018H54.9044C54.9044 388.018 56.1269 376.038 48.8652 359.999C59.5011 368.006 63.7554 380.647 64.8801 388.018Z" fill="#D8F1A0"/>
<path d="M67.8867 393.556H73.1802C73.1802 393.556 72.5078 387.211 76.3709 378.727C70.7596 382.969 68.4857 389.656 67.8867 393.556Z" fill="#C3E37C"/>
<path opacity="0.2" d="M67.8867 393.556H73.1802C73.1802 393.556 72.5078 387.211 76.3709 378.727C70.7596 382.969 68.4857 389.656 67.8867 393.556Z" fill="white"/>
<path d="M96.7379 259.741L86.7989 241.917L76.7988 261.721L78.6937 386.27H94.9042L96.7379 259.741Z" fill="#C3E37C"/>
<path opacity="0.6" d="M96.7379 259.741L86.7989 241.917L76.7988 261.721L78.6937 386.27H94.9042L96.7379 259.741Z" fill="white"/>
<path d="M112.191 266.134L122.13 241.917L132.131 261.721L130.236 386.27H114.025L112.191 266.134Z" fill="#C3E37C"/>
<path opacity="0.6" d="M112.191 266.134L122.13 241.917L132.131 261.721L130.236 386.27H114.025L112.191 266.134Z" fill="white"/>
<path d="M152.143 259.741L162.082 241.917L172.082 261.721L170.187 386.27H153.976L152.143 259.741Z" fill="#C3E37C"/>
<path opacity="0.6" d="M152.143 259.741L162.082 241.917L172.082 261.721L170.187 386.27H153.976L152.143 259.741Z" fill="white"/>
<path d="M216.287 266.134L206.348 241.917L196.348 261.721L198.243 386.27H214.453L216.287 266.134Z" fill="#C3E37C"/>
<path opacity="0.6" d="M216.287 266.134L206.348 241.917L196.348 261.721L198.243 386.27H214.453L216.287 266.134Z" fill="white"/>
<g opacity="0.5">
<path d="M77.4965 307.614L96.0542 306.758L96.3354 287.101L77.2031 288.286L77.4965 307.614Z" fill="#C3E37C"/>
<path d="M112.804 306L131.471 305.144L131.777 284.899L112.498 286.085L112.804 306Z" fill="#C3E37C"/>
<path d="M152.791 304.167L171.447 303.299L171.765 282.418L152.498 283.617L152.791 304.167Z" fill="#C3E37C"/>
<path d="M196.643 280.878L196.96 302.125L215.75 301.269L216.093 279.68L196.643 280.878Z" fill="#C3E37C"/>
</g>
<path d="M221.47 294.668L63.3266 301.93L63.0332 282.834L222.644 272.932L221.47 294.668Z" fill="#C3E37C"/>
<path opacity="0.6" d="M221.47 294.668L63.3266 301.93L63.0332 282.834L222.644 272.932L221.47 294.668Z" fill="white"/>
<path d="M263.538 43.4665C241.533 37.4885 230.982 41.7917 219.687 44.689C208.391 47.5864 209.906 37.7574 230.983 28.7964C244.565 23.0384 260.531 28.1974 273.416 35.0801C290.531 44.2489 313.502 31.6938 305.47 40.4836C297.438 49.2734 279.272 47.7453 263.538 43.4665Z" fill="#C3E37C"/>
<path opacity="0.3" d="M263.538 43.4665C241.533 37.4885 230.982 41.7917 219.687 44.689C208.391 47.5864 209.906 37.7574 230.983 28.7964C244.565 23.0384 260.531 28.1974 273.416 35.0801C290.531 44.2489 313.502 31.6938 305.47 40.4836C297.438 49.2734 279.272 47.7453 263.538 43.4665Z" fill="black"/>
<path d="M262.035 25.8752C258.918 24.4449 248.086 24.6527 243.074 25.8019C232.45 28.2469 231.46 39.115 235.262 48.8339C239.064 58.5529 240.348 88.1498 269.028 69.3598C293.221 53.4917 278.221 24.5672 262.035 25.8752Z" fill="#263238"/>
<path d="M275.493 95.4482C275.395 98.4923 275.346 101.805 275.42 104.996C275.493 108.187 275.554 111.439 275.799 114.629C276.184 120.964 277.063 127.258 278.427 133.456L278.99 135.718C279.075 136.146 279.161 136.353 279.246 136.659C279.332 136.965 279.466 137.258 279.564 137.564C280.097 138.907 280.718 140.214 281.422 141.476C282.972 144.221 284.661 146.886 286.484 149.459C288.317 152.099 290.261 154.728 292.266 157.307C294.271 159.887 296.325 162.503 298.379 165.033L294.577 168.86C289.34 164.487 284.437 159.73 279.906 154.63C277.566 152.011 275.409 149.233 273.452 146.317C272.393 144.76 271.453 143.125 270.64 141.427C270.444 140.962 270.224 140.522 270.041 140.021C269.857 139.52 269.637 138.969 269.527 138.591L268.745 136.048C267.755 132.682 266.963 129.261 266.373 125.803C265.725 122.38 265.346 118.945 265.016 115.51C264.686 112.074 264.478 108.651 264.417 105.216C264.356 101.781 264.356 98.4189 264.588 94.8003L275.493 95.4482Z" fill="#FFB573"/>
<path d="M272.217 82.2937C280.982 87.0737 277.608 105.876 277.608 105.876L261.447 111.389C261.447 111.389 252.816 89.1275 257.999 84.9098C263.39 80.521 265.432 78.5895 272.217 82.2937Z" fill="#263238"/>
<path opacity="0.2" d="M272.512 87.8315L274.554 106.939L262.549 111.023L272.512 87.8315Z" fill="black"/>
<path d="M296.571 163.272L308.454 165.607L300.336 172.735C300.336 172.735 293.894 170.4 293.258 166.011L296.571 163.272Z" fill="#FFB573"/>
<path d="M314.553 170.656L308.697 177.625L300.299 172.735L308.453 165.583L314.553 170.656Z" fill="#FFB573"/>
<path d="M227.377 382.505H238.049L238.759 357.798H228.098L227.377 382.505Z" fill="#FFB573"/>
<path d="M142.84 342.444L151.96 347.969L167.681 328.593L158.549 323.079L142.84 342.444Z" fill="#FFB573"/>
<path d="M153.305 347.15L145.237 338.287C145.1 338.132 144.911 338.033 144.706 338.008C144.501 337.983 144.294 338.035 144.124 338.152L136.19 343.519C135.995 343.662 135.833 343.844 135.714 344.053C135.595 344.263 135.521 344.496 135.498 344.736C135.475 344.976 135.503 345.218 135.58 345.447C135.657 345.675 135.782 345.885 135.945 346.062C138.806 349.106 140.347 350.426 143.892 354.326C146.08 356.771 150.689 364.106 153.672 367.382C156.655 370.659 160.127 367.884 159.161 366.233C156.014 360.983 154.236 355.026 153.99 348.91C153.972 348.262 153.73 347.64 153.305 347.15Z" fill="#263238"/>
<path d="M238.415 381.271H226.422C226.218 381.268 226.02 381.34 225.865 381.473C225.71 381.606 225.608 381.79 225.579 381.992L224.21 391.479C224.186 391.718 224.212 391.959 224.287 392.188C224.362 392.416 224.485 392.627 224.646 392.805C224.807 392.983 225.004 393.126 225.223 393.224C225.443 393.322 225.681 393.373 225.921 393.373C230.102 393.3 232.107 393.056 237.388 393.056C240.628 393.056 248.195 393.398 252.67 393.398C257.144 393.398 257.389 388.972 255.518 388.569C247.168 386.772 243.012 384.29 240.2 381.918C239.696 381.506 239.067 381.277 238.415 381.271Z" fill="#263238"/>
<g opacity="0.2">
<path d="M238.76 357.81L238.393 370.536H227.721L228.087 357.81H238.76Z" fill="black"/>
<path d="M158.539 323.079L167.671 328.605L159.052 339.216L150.434 333.067L158.539 323.079Z" fill="black"/>
</g>
<path d="M275.385 87.6612C274.993 94.3727 272.377 109.935 261.937 145.853L218.941 140.535C221.716 123.823 223.073 113.212 219.712 79.7271C219.653 79.1596 219.71 78.5862 219.881 78.0417C220.051 77.4973 220.331 76.9934 220.703 76.5608C221.075 76.1282 221.531 75.7761 222.044 75.5259C222.557 75.2758 223.115 75.1329 223.685 75.106C228.394 74.8817 233.113 74.9266 237.817 75.2405C244.387 75.5883 250.924 76.4054 257.377 77.6855C262.267 78.7613 267.622 80.3017 271.094 81.353C272.408 81.7791 273.542 82.6302 274.319 83.7723C275.096 84.9144 275.471 86.2826 275.385 87.6612Z" fill="#C3E37C"/>
<path d="M251.216 114.373H251.118L234.773 109.58C234.697 109.558 234.633 109.507 234.592 109.439C234.551 109.372 234.538 109.291 234.553 109.214L235.445 104.482C235.463 104.404 235.509 104.334 235.574 104.287C235.639 104.24 235.72 104.218 235.8 104.226L264.113 106.671C264.155 106.674 264.196 106.685 264.233 106.704C264.271 106.723 264.304 106.749 264.331 106.781C264.358 106.813 264.379 106.85 264.392 106.889C264.405 106.929 264.41 106.971 264.407 107.013L264.089 111.817C264.081 111.89 264.051 111.958 264.003 112.013C263.954 112.067 263.891 112.106 263.82 112.123L251.265 114.373H251.216ZM235.238 109.03L251.228 113.712L263.453 111.536L263.734 107.306L236.032 104.861L235.238 109.03Z" fill="white"/>
<path d="M225.933 75.02L223.61 75.1056C223.042 75.1341 222.484 75.2782 221.973 75.529C221.462 75.7799 221.007 76.1322 220.636 76.5646C220.266 76.997 219.987 77.5004 219.817 78.0441C219.648 78.5877 219.591 79.1602 219.649 79.7267C220.53 88.4921 221.08 95.6926 221.385 101.83C223.441 100.766 225.426 99.5694 227.327 98.2477C227.327 98.2477 229.613 86.0348 225.933 75.02Z" fill="#263238"/>
<path d="M270.995 81.3644C269.969 81.0465 268.77 80.6798 267.475 80.3008C268.563 82.7458 270.262 94.2374 268.563 102.917C269.756 103.886 271.138 104.594 272.621 104.995C273.97 99.2929 274.898 93.4989 275.396 87.6603C275.471 86.2701 275.078 84.895 274.281 83.754C273.483 82.613 272.327 81.7718 270.995 81.3644Z" fill="#263238"/>
<path d="M263.134 79.0784C261.215 78.5772 259.222 78.0759 257.278 77.6481C250.825 76.3689 244.288 75.5518 237.718 75.203C235.273 75.0197 232.828 74.9463 230.566 74.9341C232.095 77.648 234.051 90.0443 233.219 97.7338C245.628 101.316 264.149 101.793 264.149 101.793C264.149 101.793 266.361 86.7435 263.134 79.0784Z" fill="#263238"/>
<path d="M242.414 53.4917C242.866 59.9343 242.67 71.597 237.756 75.2401C237.756 75.2401 239.993 82.6852 250.421 88.0887C258.82 85.1913 257.279 77.6607 257.279 77.6607C250.482 75.1179 251.301 69.9466 253.135 65.2155L242.414 53.4917Z" fill="#FFB573"/>
<path opacity="0.2" d="M246.778 58.271L253.123 65.2026C252.679 66.3022 252.335 67.4397 252.096 68.6012C249.468 67.8799 246.155 64.4813 246.216 61.6451C246.203 60.4961 246.394 59.3539 246.778 58.271Z" fill="black"/>
<path d="M243.392 37.0728C240.177 47.1585 238.588 51.3639 241.595 58.3567C246.13 68.8702 259.211 70.5818 265.385 61.7064C270.947 53.6745 275.287 38.5398 267.17 30.8625C265.388 29.1644 263.201 27.9499 260.817 27.334C258.434 26.7181 255.933 26.7214 253.551 27.3435C251.169 27.9656 248.986 29.1859 247.208 30.8886C245.43 32.5914 244.116 34.7201 243.392 37.0728Z" fill="#FFB573"/>
<path d="M243.111 29.2858L240.287 45.9119C248.686 43.0757 264.236 36.1318 266.314 32.232C270.165 24.8481 249.48 23.7845 243.111 29.2858Z" fill="#263238"/>
<path d="M238.269 26.0215C237.45 21.0582 231.741 13.0018 239.052 8.69859C246.362 4.39536 270.996 8.13624 273.441 12.5617C278.001 21.1193 278.245 33.7111 278.245 33.7111C278.245 33.7111 256.839 25.2391 238.269 26.0215Z" fill="#C3E37C"/>
<path d="M236.117 20.0925C236.909 22.0715 237.522 24.1171 237.951 26.2051C238.709 25.9361 253.844 25.1537 263.318 28.8457C268.549 30.929 273.906 32.6807 279.357 34.0903C279.357 34.0903 278.599 28.7968 277.792 25.1904C276.986 21.584 252.951 15.8504 236.117 20.0925Z" fill="#C3E37C"/>
<path opacity="0.3" d="M236.117 20.0925C236.909 22.0715 237.522 24.1171 237.951 26.2051C238.709 25.9361 253.844 25.1537 263.318 28.8457C268.549 30.929 273.906 32.6807 279.357 34.0903C279.357 34.0903 278.599 28.7968 277.792 25.1904C276.986 21.584 252.951 15.8504 236.117 20.0925Z" fill="white"/>
<path d="M230.983 28.797C244.736 23.4668 260.531 28.1979 273.416 35.0807C286.998 42.3301 304.162 35.9975 306.778 37.379C305.433 36.1565 303.661 36.4132 298.221 36.7433C292.78 37.0734 284.932 35.9853 279.162 32.6479C270.551 27.2353 260.626 24.2763 250.457 24.0903C235.408 23.5157 219.821 31.7799 213.672 40.3497C218 38.8215 222.437 32.1344 230.983 28.797Z" fill="#C3E37C"/>
<path d="M261.875 145.852C261.875 145.852 260.152 228.432 255.457 260.633C250.567 294.13 240.078 368.079 240.078 368.079H225.652C225.652 368.079 225.982 293.079 228.806 259.936C231.863 223.811 230.396 141.952 230.396 141.952L261.875 145.852Z" fill="#C3E37C"/>
<path d="M224.405 368.592H241.325L242.572 363.189L223.623 362.529L224.405 368.592Z" fill="#C3E37C"/>
<path opacity="0.3" d="M224.405 368.592H241.325L242.572 363.189L223.623 362.529L224.405 368.592Z" fill="black"/>
<path opacity="0.2" d="M240.825 163.847C248.759 186.403 235.532 224.105 230.006 238.066C230.776 216.171 230.813 189.3 230.703 169.605C233.661 158.75 237.17 153.493 240.825 163.847Z" fill="black"/>
<path d="M250.529 144.446C250.529 144.446 230.297 228.066 219.576 254.337C206.849 285.572 164.563 336.319 164.563 336.319L151.873 329.216C151.873 329.216 182.534 269.313 191.323 253.066C210.064 218.493 204.563 162.833 218.879 140.595L250.529 144.446Z" fill="#C3E37C"/>
<path d="M148.207 329.778L163.66 339.106L168.232 335.243L150.566 323.445L148.207 329.778Z" fill="#C3E37C"/>
<path opacity="0.3" d="M148.207 329.778L163.66 339.106L168.232 335.243L150.566 323.445L148.207 329.778Z" fill="black"/>
<path d="M258.085 45.8014C257.767 46.6082 257.95 47.4151 258.464 47.6229C258.977 47.8307 259.686 47.3417 259.98 46.5349C260.273 45.728 260.126 44.9212 259.601 44.7134C259.075 44.5055 258.39 44.9945 258.085 45.8014Z" fill="#263238"/>
<path d="M267.145 49.3223C266.84 50.1291 267.011 50.9482 267.537 51.1438C268.062 51.3394 268.759 50.8626 269.052 50.068C269.346 49.2734 269.187 48.4421 268.661 48.2465C268.136 48.0509 267.463 48.5276 267.145 49.3223Z" fill="#263238"/>
<path d="M268.416 48.1978L270.555 48.3934C270.555 48.3934 268.978 49.5792 268.416 48.1978Z" fill="#263238"/>
<path d="M263.796 49.6895C263.796 51.7938 264.088 53.8881 264.664 55.912C264.142 56.0479 263.596 56.0668 263.066 55.9675C262.535 55.8682 262.033 55.6531 261.596 55.3375L263.796 49.6895Z" fill="#ED893E"/>
<path d="M255.996 56.7809C256.368 56.9859 256.752 57.1696 257.145 57.331C257.206 57.3477 257.271 57.341 257.328 57.3123C257.385 57.2836 257.429 57.2348 257.452 57.1754C257.475 57.1161 257.475 57.0504 257.452 56.991C257.429 56.9317 257.385 56.8829 257.328 56.8542C256.32 56.4918 255.414 55.8948 254.682 55.1125C253.951 54.3302 253.416 53.3851 253.123 52.3554C253.106 52.2909 253.065 52.2352 253.009 52.2003C252.952 52.1654 252.884 52.1538 252.819 52.1681C252.754 52.1824 252.697 52.2214 252.66 52.2768C252.623 52.3323 252.609 52.3999 252.621 52.4654C252.868 53.3731 253.294 54.2224 253.873 54.9634C254.453 55.7044 255.174 56.3223 255.996 56.7809Z" fill="#263238"/>
<path d="M237.34 44.7753C237.145 46.8118 237.765 48.8425 239.064 50.4233C240.812 52.5138 243.208 51.3279 243.954 48.8829C244.675 46.6824 244.638 42.9415 242.266 41.7557C241.748 41.5158 241.177 41.4076 240.607 41.441C240.036 41.4743 239.482 41.6481 238.995 41.9468C238.507 42.2456 238.101 42.6601 237.813 43.1535C237.524 43.6469 237.361 44.204 237.34 44.7753Z" fill="#FFB573"/>
<path d="M256.864 40.5205C256.928 40.6066 257.02 40.6689 257.124 40.6977C257.228 40.7264 257.338 40.72 257.438 40.6795C259.626 39.8726 262.12 41.5719 262.145 41.5841C262.255 41.6603 262.391 41.6896 262.523 41.6655C262.655 41.6414 262.771 41.566 262.848 41.4557C262.924 41.3455 262.953 41.2095 262.929 41.0777C262.905 40.9459 262.83 40.829 262.719 40.7528C262.597 40.6672 259.761 38.7479 257.084 39.7381C256.958 39.785 256.856 39.879 256.799 40C256.742 40.121 256.734 40.2595 256.778 40.3861C256.799 40.4352 256.828 40.4805 256.864 40.5205Z" fill="#263238"/>
<path d="M272.66 44.6896C272.755 44.7506 272.869 44.7774 272.981 44.7655C273.094 44.7537 273.2 44.704 273.28 44.6246C273.361 44.5451 273.413 44.4406 273.427 44.3281C273.44 44.2155 273.416 44.1017 273.356 44.005C272.978 43.298 272.437 42.691 271.778 42.2341C271.119 41.7771 270.361 41.4832 269.567 41.3766C269.432 41.3699 269.301 41.4161 269.2 41.5052C269.1 41.5943 269.038 41.7193 269.029 41.8534C269.024 41.9193 269.032 41.9855 269.053 42.0482C269.073 42.1109 269.106 42.169 269.149 42.2189C269.192 42.2689 269.245 42.3099 269.304 42.3395C269.363 42.369 269.427 42.3867 269.493 42.3913C270.123 42.4821 270.721 42.7212 271.24 43.089C271.759 43.4567 272.182 43.9425 272.476 44.5063C272.514 44.587 272.579 44.652 272.66 44.6896Z" fill="#263238"/>
<path d="M156.08 352.211H156.215C156.452 352.221 156.689 352.171 156.902 352.066C157.115 351.962 157.299 351.805 157.437 351.612C157.544 351.502 157.617 351.365 157.649 351.216C157.682 351.067 157.672 350.912 157.621 350.768C157.205 349.473 153.477 348.482 153.049 348.323C153.002 348.312 152.953 348.314 152.908 348.33C152.863 348.345 152.822 348.372 152.792 348.409C152.765 348.451 152.75 348.5 152.75 348.55C152.75 348.599 152.765 348.648 152.792 348.69C153.44 349.974 154.723 351.979 156.08 352.211ZM153.513 349.094C154.992 349.521 156.924 350.316 157.181 350.988C157.199 351.053 157.2 351.121 157.183 351.185C157.166 351.25 157.131 351.309 157.083 351.355C156.991 351.489 156.866 351.597 156.721 351.67C156.575 351.742 156.414 351.777 156.252 351.771C155.469 351.673 154.491 350.671 153.513 349.094Z" fill="#C3E37C"/>
<path d="M153.294 348.972C154.602 349.216 157.108 349.033 157.756 348.14C157.883 347.985 157.953 347.791 157.953 347.59C157.953 347.39 157.883 347.195 157.756 347.04C157.645 346.882 157.502 346.75 157.335 346.653C157.168 346.556 156.982 346.496 156.79 346.478C155.25 346.307 152.964 348.373 152.866 348.458C152.836 348.489 152.814 348.525 152.802 348.566C152.789 348.606 152.786 348.649 152.793 348.691C152.803 348.735 152.824 348.775 152.854 348.809C152.884 348.843 152.922 348.87 152.964 348.886L153.294 348.972ZM156.766 346.991C156.872 347.01 156.973 347.05 157.063 347.109C157.154 347.168 157.231 347.244 157.292 347.334C157.487 347.603 157.426 347.749 157.292 347.847C156.851 348.446 154.761 348.715 153.477 348.507C154.344 347.689 155.44 347.155 156.619 346.979L156.766 346.991Z" fill="#C3E37C"/>
<path d="M242.414 383.129C243.326 383.212 244.24 382.984 245.006 382.481C245.173 382.328 245.302 382.137 245.38 381.924C245.459 381.712 245.486 381.483 245.458 381.258C245.452 381.118 245.409 380.982 245.334 380.864C245.259 380.746 245.154 380.65 245.03 380.586C243.722 379.864 239.468 382.041 238.991 382.297C238.944 382.32 238.906 382.357 238.881 382.404C238.857 382.45 238.848 382.502 238.856 382.554C238.868 382.604 238.894 382.651 238.931 382.687C238.968 382.724 239.014 382.75 239.064 382.762C240.167 382.99 241.288 383.112 242.414 383.129ZM244.321 380.928C244.48 380.919 244.64 380.948 244.785 381.014C244.837 381.04 244.88 381.081 244.91 381.13C244.94 381.18 244.956 381.237 244.957 381.295C244.981 381.443 244.966 381.595 244.915 381.736C244.864 381.878 244.777 382.003 244.663 382.102C244.015 382.688 242.218 382.786 239.895 382.395C241.272 381.638 242.769 381.125 244.321 380.879V380.928Z" fill="#C3E37C"/>
<path d="M239.114 382.762H239.211C240.434 382.187 243.001 379.877 242.806 378.678C242.806 378.385 242.549 378.03 241.852 377.957C241.595 377.932 241.337 377.962 241.092 378.044C240.848 378.126 240.624 378.259 240.434 378.434C239.089 379.546 238.845 382.419 238.832 382.542C238.83 382.586 238.839 382.631 238.858 382.672C238.877 382.712 238.906 382.747 238.942 382.774C239 382.786 239.059 382.782 239.114 382.762ZM241.656 378.434H241.803C242.268 378.434 242.292 378.666 242.304 378.727C242.427 379.461 240.715 381.27 239.419 382.053C239.519 380.842 239.993 379.693 240.776 378.764C241.02 378.551 241.333 378.433 241.656 378.434Z" fill="#C3E37C"/>
<path d="M259.346 44.6895L261.497 44.8851C261.497 44.8851 259.92 45.9853 259.346 44.6895Z" fill="#263238"/>
<path d="M304.627 237.344L236.9 214.117L266.143 157.282L316.4 174.507L304.627 237.344Z" fill="#263238"/>
<path d="M306.741 238.066L296.02 234.386L347.597 197.516L347.499 202.247L306.741 238.066Z" fill="#263238"/>
<path d="M261.79 209.129C251.142 209.153 240.858 205.257 232.899 198.184C224.94 191.111 219.862 181.356 218.633 170.78C217.405 160.203 220.112 149.544 226.239 140.835C232.366 132.127 241.483 125.978 251.853 123.561C262.223 121.143 273.12 122.627 282.465 127.729C291.811 132.831 298.953 141.194 302.528 151.224C306.103 161.254 305.861 172.248 301.85 182.112C297.838 191.975 290.337 200.017 280.776 204.703C274.866 207.603 268.373 209.116 261.79 209.129ZM261.717 126.402C251.802 126.39 242.245 130.105 234.942 136.812C227.639 143.519 223.125 152.725 222.295 162.606C221.465 172.486 224.38 182.317 230.461 190.148C236.543 197.979 245.346 203.237 255.124 204.879C264.902 206.521 274.94 204.427 283.246 199.012C291.552 193.598 297.518 185.258 299.961 175.649C302.404 166.04 301.145 155.863 296.434 147.139C291.723 138.415 283.904 131.781 274.529 128.553C270.407 127.13 266.077 126.402 261.717 126.402Z" fill="#263238"/>
<path d="M345.018 184.128L345.824 201.341L360.47 210.437L345.018 184.128Z" fill="#263238"/>
<path d="M226.595 132.881L235.727 127.991L233.527 138.614C233.527 138.614 226.974 140.631 223.832 137.514L225.128 134.531C225.415 133.83 225.933 133.248 226.595 132.881Z" fill="#FFB573"/>
<path d="M222.585 94.5433C221.852 95.4602 220.996 96.5849 220.14 97.6362C219.285 98.6876 218.551 99.8123 217.793 100.925C216.277 103.138 214.761 105.362 213.404 107.661C210.665 112.117 208.422 116.86 206.717 121.805L206.204 123.419C206.136 123.629 206.095 123.847 206.081 124.067C206.079 124.513 206.235 124.946 206.522 125.289C207.95 126.835 209.716 128.031 211.681 128.786C214.08 129.827 216.557 130.681 219.089 131.341C221.668 132.062 224.407 132.649 227.023 133.15L226.754 138.541C220.714 138.859 214.663 138.202 208.832 136.598C207.247 136.123 205.705 135.513 204.223 134.776C202.499 133.937 200.935 132.804 199.602 131.426C197.935 129.703 196.849 127.502 196.497 125.13C196.319 123.947 196.319 122.744 196.497 121.561C196.497 121.304 196.595 120.962 196.644 120.766L196.778 120.204L197.059 119.055C197.402 117.514 197.903 116.072 198.355 114.592C198.808 113.113 199.394 111.695 200.006 110.314C201.176 107.537 202.507 104.831 203.991 102.208C205.458 99.6045 206.998 97.0739 208.685 94.6289C209.529 93.4064 210.397 92.1839 211.289 90.9614C212.182 89.7388 213.074 88.6386 214.15 87.3794L222.585 94.5433Z" fill="#FFB573"/>
<path d="M223.025 75.1783C210.494 77.7945 204.748 92.9536 204.748 92.9536L219.65 106.939C219.65 106.939 226.411 104.066 227.352 98.247C228.306 92.1834 226.509 74.4448 223.025 75.1783Z" fill="#263238"/>
<path d="M244.567 129.434L242.244 138.224L233.527 138.566L235.728 127.942L244.567 129.434Z" fill="#FFB573"/>
</svg>
