<?xml version="1.0" encoding="UTF-8"?>
<svg version="1.1" xmlns="http://www.w3.org/2000/svg" width="100" height="100">
<path d="M0 0 C11.54950871 8.60143592 18.62378901 19.8261099 21 34 C21.9750039 49.18756075 18.82105513 62.42984197 8.875 74.1875 C0.00635483 83.5570321 -11.23419256 89.37305928 -24.1640625 90.203125 C-39.64483559 90.41279687 -52.31655542 86.2717117 -63.671875 75.5234375 C-73.8052857 64.53990845 -77.35246973 52.28233379 -77.21484375 37.6328125 C-76.40398246 23.92188517 -69.9932364 12.21976609 -60 3 C-42.25186933 -10.60519527 -19.101144 -12.05119495 0 0 Z " fill="#EAE2CA" transform="translate(78,9)"/>
<path d="M0 0 C0.78503906 0.00515625 1.57007813 0.0103125 2.37890625 0.015625 C3.55259766 0.00789063 3.55259766 0.00789063 4.75 0 C6.94140625 0.265625 6.94140625 0.265625 9.94140625 2.265625 C10.3021698 4.32839966 10.3021698 4.32839966 10.28198242 6.89892578 C10.28175583 7.85977081 10.28152924 8.82061584 10.28129578 9.81057739 C10.26581192 10.85019623 10.25032806 11.88981506 10.234375 12.9609375 C10.23013016 14.02351776 10.22588531 15.08609802 10.22151184 16.18087769 C10.20468014 19.58438146 10.16701928 22.98729933 10.12890625 26.390625 C10.11386524 28.69400188 10.10017583 30.99738802 10.08789062 33.30078125 C10.05476199 38.95593005 10.00451822 44.61073568 9.94140625 50.265625 C7.60173935 51.43545845 6.10749098 51.4317491 3.50390625 51.453125 C2.72144531 51.46730469 1.93898438 51.48148438 1.1328125 51.49609375 C-1.05859375 51.265625 -1.05859375 51.265625 -4.05859375 49.265625 C-4.43281555 47.25427246 -4.43281555 47.25427246 -4.4309082 44.75585938 C-4.43713699 43.82149048 -4.44336578 42.88712158 -4.44978333 41.92443848 C-4.44057358 40.91296753 -4.43136383 39.90149658 -4.421875 38.859375 C-4.4223735 37.82373413 -4.42287201 36.78809326 -4.42338562 35.72106934 C-4.42104229 33.52870772 -4.41129866 31.33634357 -4.39477539 29.14404297 C-4.37119016 25.77937888 -4.37421167 22.41550692 -4.38085938 19.05078125 C-4.3752827 16.92447442 -4.36817288 14.79817094 -4.359375 12.671875 C-4.36028641 11.66040405 -4.36119781 10.64893311 -4.36213684 9.60681152 C-4.35260483 8.67244263 -4.34307281 7.73807373 -4.33325195 6.77539062 C-4.32634087 5.53867615 -4.32634087 5.53867615 -4.31929016 4.27697754 C-3.94129246 1.36060964 -2.90557171 0.37491248 0 0 Z " fill="#0F5066" transform="translate(47.05859375,23.734375)"/>
<path d="M0 0 C1.34500772 0.64278803 2.68017808 1.30696875 4 2 C4.04935824 7.23273331 4.08569949 12.46533176 4.10986328 17.69824219 C4.11993431 19.47919067 4.13359185 21.26012257 4.15087891 23.04101562 C4.17507913 25.59769783 4.18647184 28.15416185 4.1953125 30.7109375 C4.20563507 31.50994476 4.21595764 32.30895203 4.22659302 33.13217163 C4.22699226 35.0895722 4.12241069 37.04643077 4 39 C2 41 2 41 -0.0234375 41.265625 C-1.18746094 41.25789063 -1.18746094 41.25789063 -2.375 41.25 C-3.14585938 41.25515625 -3.91671875 41.2603125 -4.7109375 41.265625 C-7.20922937 40.97572082 -8.7959537 40.16722305 -11 39 C-11.07403712 33.76728431 -11.12854783 28.53487199 -11.16479492 23.30175781 C-11.17990173 21.52077933 -11.20038835 19.73983816 -11.22631836 17.95898438 C-11.26261943 15.40225022 -11.27970688 12.8460069 -11.29296875 10.2890625 C-11.30845261 9.49005524 -11.32393646 8.69104797 -11.33988953 7.86782837 C-11.34057617 5.62353516 -11.34057617 5.62353516 -11 2 C-7.34716253 -0.43522498 -4.25031548 -0.55474367 0 0 Z " fill="#F16202" transform="translate(71,34)"/>
<path d="M0 0 C1.32 0.66 2.64 1.32 4 2 C4 14.21 4 26.42 4 39 C-0.27706901 41.13853451 -2.31759085 41.3344578 -7 41 C-9.21875 39.984375 -9.21875 39.984375 -11 39 C-11.07403712 33.76728431 -11.12854783 28.53487199 -11.16479492 23.30175781 C-11.17990173 21.52077933 -11.20038835 19.73983816 -11.22631836 17.95898438 C-11.26261943 15.40225022 -11.27970688 12.8460069 -11.29296875 10.2890625 C-11.30845261 9.49005524 -11.32393646 8.69104797 -11.33988953 7.86782837 C-11.34057617 5.62353516 -11.34057617 5.62353516 -11 2 C-7.34716253 -0.43522498 -4.25031548 -0.55474367 0 0 Z " fill="#2CAA9C" transform="translate(35,34)"/>
<path d="M0 0 C1.32 0.66 2.64 1.32 4 2 C4 14.21 4 26.42 4 39 C3.67 39 3.34 39 3 39 C2.67 27.78 2.34 16.56 2 5 C-1.63 5 -5.26 5 -9 5 C-9.33 16.22 -9.66 27.44 -10 39 C-10.33 39 -10.66 39 -11 39 C-11.07403712 33.76728431 -11.12854783 28.53487199 -11.16479492 23.30175781 C-11.17990173 21.52077933 -11.20038835 19.73983816 -11.22631836 17.95898438 C-11.26261943 15.40225022 -11.27970688 12.8460069 -11.29296875 10.2890625 C-11.30845261 9.49005524 -11.32393646 8.69104797 -11.33988953 7.86782837 C-11.34057617 5.62353516 -11.34057617 5.62353516 -11 2 C-7.34716253 -0.43522498 -4.25031548 -0.55474367 0 0 Z " fill="#48BEAE" transform="translate(35,34)"/>
<path d="M0 0 C2.5 1 2.5 1 4 2 C4 2.66 4 3.32 4 4 C2 5 2 5 -9 5 C-9.33 16.22 -9.66 27.44 -10 39 C-10.33 39 -10.66 39 -11 39 C-11.07403712 33.76728431 -11.12854783 28.53487199 -11.16479492 23.30175781 C-11.17990173 21.52077933 -11.20038835 19.73983816 -11.22631836 17.95898438 C-11.26261943 15.40225022 -11.27970688 12.8460069 -11.29296875 10.2890625 C-11.30845261 9.49005524 -11.32393646 8.69104797 -11.33988953 7.86782837 C-11.34057617 5.62353516 -11.34057617 5.62353516 -11 2 C-7.29598872 -0.46934085 -4.29412135 -0.44928433 0 0 Z " fill="#F08E49" transform="translate(71,34)"/>
<path d="M0 0 C0.79148437 -0.01417969 1.58296875 -0.02835938 2.3984375 -0.04296875 C4.625 0.1875 4.625 0.1875 7.625 2.1875 C7.295 3.1775 6.965 4.1675 6.625 5.1875 C2.665 5.1875 -1.295 5.1875 -5.375 5.1875 C-5.375 -0.20489389 -4.8943304 0.03959814 0 0 Z " fill="#1F7591" transform="translate(49.375,23.8125)"/>
</svg>
